<svg xmlns="http://www.w3.org/2000/svg" width="88" height="74" fill="none" xmlns:v="https://vecta.io/nano"><path d="M59.8 22v.2h.2 18c5.403 0 9.8 4.397 9.8 9.8v20c0 5.404-4.397 9.8-9.8 9.8h-4-.2v.2 10a1.8 1.8 0 0 1-1.11 1.663 1.81 1.81 0 0 1-.69.137c-.469 0-.928-.183-1.273-.527L59.313 61.859l-.059-.059h-.083H44c-5.404 0-9.8-4.396-9.8-9.8v-8-.2H34h-3.172-.083l-.059.059-13.414 13.414c-.345.345-.804.527-1.273.527-.232 0-.466-.045-.689-.137A1.8 1.8 0 0 1 14.2 56V44v-.2H14h-4C4.596 43.8.2 39.404.2 34V10C.2 4.596 4.596.2 10 .2h40c5.404 0 9.8 4.396 9.8 9.8v12zm-42 29.172v.483l.341-.341 10.586-10.586A1.8 1.8 0 0 1 30 40.2h20a6.21 6.21 0 0 0 6.2-6.2V10A6.21 6.21 0 0 0 50 3.8H10A6.21 6.21 0 0 0 3.8 10v24a6.21 6.21 0 0 0 6.2 6.2h6a1.8 1.8 0 0 1 1.8 1.8v9.172zm52.059 16.141l.341.341v-.483V60a1.8 1.8 0 0 1 1.8-1.8h6a6.21 6.21 0 0 0 6.2-6.2V32a6.21 6.21 0 0 0-6.2-6.2H60h-.2v.2 8c0 5.404-4.396 9.8-9.8 9.8H38h-.2v.2 8a6.21 6.21 0 0 0 6.2 6.2h16a1.8 1.8 0 0 1 1.273.527l8.586 8.586zM75.8 34a1.8 1.8 0 0 1-1.8 1.8h-8a1.8 1.8 0 0 1 0-3.6h8a1.8 1.8 0 0 1 1.8 1.8zm0 8a1.8 1.8 0 0 1-1.8 1.8H64a1.8 1.8 0 0 1 0-3.6h10a1.8 1.8 0 0 1 1.8 1.8zm0 8a1.8 1.8 0 0 1-1.8 1.8H48a1.8 1.8 0 0 1 0-3.6h26a1.8 1.8 0 0 1 1.8 1.8zm-28-36a1.8 1.8 0 0 1-1.8 1.8H14a1.8 1.8 0 1 1 0-3.6h32a1.8 1.8 0 0 1 1.8 1.8zm0 8a1.8 1.8 0 0 1-1.8 1.8H14a1.8 1.8 0 1 1 0-3.6h32a1.8 1.8 0 0 1 1.8 1.8zm0 8a1.8 1.8 0 0 1-1.8 1.8H14a1.8 1.8 0 1 1 0-3.6h32a1.8 1.8 0 0 1 1.8 1.8z" fill="#fff" stroke="#009cf3" stroke-width=".4"/></svg>