<svg width="112" height="79" viewBox="0 0 112 79" fill="none" xmlns="http://www.w3.org/2000/svg">
<path fill-rule="evenodd" clip-rule="evenodd" d="M18.9575 5.97006C18.9575 2.67289 21.7495 0 25.1935 0H86.556C90 0 92.792 2.67289 92.792 5.97006V37.9696C92.792 38.629 92.2336 39.1636 91.5448 39.1636C90.856 39.1636 90.2976 38.629 90.2976 37.9696V5.97006C90.2976 3.99176 88.6224 2.38802 86.556 2.38802H25.1935C23.1271 2.38802 21.4519 3.99176 21.4519 5.97006V37.9696C21.4519 38.629 20.8935 39.1636 20.2047 39.1636C19.5159 39.1636 18.9575 38.629 18.9575 37.9696V5.97006Z" fill="white"/>
<path fill-rule="evenodd" clip-rule="evenodd" d="M52.8811 17.3819V0.716431H55.3755V17.4922L55.3694 17.5514C55.3512 17.7248 55.4187 17.8162 55.4297 17.8251C55.4333 17.828 55.4457 17.8376 55.4758 17.8492C55.507 17.8611 55.5658 17.8783 55.6631 17.887C55.8637 17.9048 56.2113 17.8843 56.7548 17.7242C58.4969 17.211 61.5812 16.7301 64.3481 17.5451C65.7618 17.9615 67.1273 18.7281 68.15 20.0274C69.172 21.3258 69.7745 23.0582 69.8427 25.278L69.8432 25.2955V25.3131C69.8432 25.9911 69.5376 28.2156 67.7821 30.1063C65.9461 32.0837 62.7445 33.4651 57.4356 32.7027L57.3288 32.6874L57.2262 32.6547C56.5716 32.4458 56.0293 32.4238 55.7395 32.5247C55.6334 32.5616 55.5747 32.6086 55.5265 32.6838C55.4685 32.7743 55.3755 32.9888 55.3755 33.4324V46.8053H52.8811V33.4324C52.8811 32.6819 53.0376 32.0009 53.4005 31.4347C53.7733 30.8532 54.3071 30.4823 54.887 30.2804C55.9232 29.9197 57.071 30.1032 57.9058 30.3553C62.5071 30.9937 64.7688 29.7572 65.9178 28.5198C67.1366 27.207 67.3427 25.6392 67.3487 25.3267C67.289 23.4988 66.8015 22.2823 66.1579 21.4645C65.5124 20.6445 64.6329 20.1275 63.6145 19.8275C61.5173 19.2098 58.9891 19.5646 57.4884 20.0066C56.0048 20.4436 54.7151 20.3791 53.8123 19.6431C52.985 18.9685 52.8326 18.008 52.8811 17.3819Z" fill="white"/>
<path fill-rule="evenodd" clip-rule="evenodd" d="M6.76971 52.4612C7.7479 52.6354 8.50424 53.205 8.92072 53.6607C9.37431 54.157 9.32178 54.9113 8.80339 55.3455C8.28501 55.7798 7.49707 55.7295 7.04349 55.2332C6.87794 55.0521 6.58663 54.8576 6.31346 54.8089C6.19731 54.7882 6.08751 54.7934 5.97067 54.8343C5.85118 54.876 5.66297 54.9767 5.42855 55.2332C4.01162 56.7835 2.64549 58.1401 2.1291 58.6345C1.64204 59.1008 0.852352 59.1008 0.365292 58.6345C-0.121768 58.1682 -0.121763 57.4122 0.365303 56.9459C0.846682 56.485 2.17451 55.1671 3.55132 53.6607C4.51946 52.6014 5.68129 52.2673 6.76971 52.4612Z" fill="white"/>
<path fill-rule="evenodd" clip-rule="evenodd" d="M15.4287 29.7119C16.9629 28.9836 18.6093 28.958 19.6896 29.155C20.3662 29.2784 20.8103 29.9035 20.6814 30.5513C20.5525 31.1991 19.8995 31.6242 19.2228 31.5008C18.557 31.3794 17.4845 31.4015 16.5367 31.8514C15.6579 32.2685 14.7777 33.0999 14.4473 34.8399C13.6698 38.9338 10.6962 48.867 9.13429 53.8875L28.1817 73.0951L22.8325 78.2162C22.3454 78.6825 21.5558 78.6825 21.0687 78.2162C20.5816 77.75 20.5816 76.9939 21.0687 76.5277L24.6993 73.0519L6.33008 54.5281L6.53787 53.865C8.04164 49.0662 11.2101 38.5355 11.9931 34.4127C12.4608 31.9498 13.8256 30.4728 15.4287 29.7119Z" fill="white"/>
<path fill-rule="evenodd" clip-rule="evenodd" d="M35.3476 39.2202C37.9226 37.0632 41.6934 37.4658 44.0854 40.042C46.4518 42.5907 46.323 45.8641 45.226 47.6495L45.1405 47.7885L45.0196 47.9009C43.6197 49.2017 41.5086 51.2467 39.7294 53.1481C38.838 54.1009 38.0471 54.9994 37.4734 55.7406C37.1858 56.1122 36.9683 56.4246 36.8225 56.6713C36.6875 56.8997 36.6588 56.9983 36.6565 56.9977C36.6563 56.9977 36.6564 56.9964 36.6567 56.9939C36.5715 57.6314 36.2865 58.4625 35.9266 59.3183C35.553 60.2065 35.0582 61.2147 34.4957 62.2301C33.3857 64.2339 31.9446 66.3885 30.5653 67.709C29.3144 68.9065 27.6577 69.4531 26.2092 69.6842C24.7527 69.9166 23.3665 69.8533 22.494 69.7141C21.8146 69.6057 21.3556 68.9905 21.4688 68.34C21.5821 67.6896 22.2247 67.2501 22.9041 67.3585C23.5283 67.4581 24.6365 67.5142 25.7991 67.3287C26.9698 67.1419 28.0569 66.7333 28.8015 66.0204C29.9166 64.9529 31.2193 63.0478 32.292 61.1113C32.8208 60.1567 33.2769 59.2246 33.6127 58.4263C33.9601 57.6003 34.1417 57.0032 34.183 56.6869C34.2397 56.2523 34.4553 55.8271 34.6516 55.4952C34.8669 55.1308 35.1498 54.7317 35.4692 54.319C36.1095 53.4916 36.9586 52.5304 37.8715 51.5548C39.6438 49.6606 41.7211 47.6434 43.1467 46.3136C43.656 45.3348 43.7759 43.3032 42.221 41.6285C40.6328 39.918 38.4363 39.8324 37.0192 40.9934L29.1844 48.494L29.0171 48.5783C28.0345 49.0734 26.4048 49.489 24.8128 48.8816C23.1221 48.2366 21.9054 46.6142 21.4664 43.8824C21.3616 43.2307 21.8286 42.621 22.5094 42.5207C23.1902 42.4205 23.827 42.8675 23.9318 43.5193C24.291 45.7546 25.1529 46.4407 25.7363 46.6633C26.3612 46.9017 27.1186 46.7894 27.7004 46.5375L35.3163 39.2464L35.3476 39.2202Z" fill="white"/>
<path fill-rule="evenodd" clip-rule="evenodd" d="M104.73 52.4612C103.752 52.6354 102.996 53.205 102.58 53.6607C102.126 54.157 102.178 54.9113 102.697 55.3455C103.215 55.7798 104.003 55.7295 104.457 55.2332C104.622 55.0521 104.914 54.8576 105.187 54.8089C105.303 54.7882 105.413 54.7934 105.529 54.8343C105.649 54.876 105.837 54.9767 106.072 55.2332C107.488 56.7835 108.855 58.1401 109.371 58.6345C109.858 59.1008 110.648 59.1008 111.135 58.6345C111.622 58.1682 111.622 57.4122 111.135 56.9459C110.653 56.485 109.326 55.1671 107.949 53.6607C106.981 52.6014 105.819 52.2673 104.73 52.4612Z" fill="white"/>
<path fill-rule="evenodd" clip-rule="evenodd" d="M96.0715 29.7119C94.5373 28.9836 92.891 28.958 91.8108 29.155C91.1341 29.2784 90.6901 29.9035 90.819 30.5513C90.9479 31.1991 91.6009 31.6242 92.2775 31.5008C92.9433 31.3794 94.0158 31.4015 94.9635 31.8514C95.8423 32.2685 96.7225 33.0999 97.0529 34.8399C97.8304 38.9338 100.804 48.867 102.366 53.8875L83.3188 73.0951L88.6679 78.2162C89.155 78.6825 89.9446 78.6825 90.4317 78.2162C90.9187 77.75 90.9187 76.9939 90.4317 76.5277L86.8011 73.0519L105.17 54.5281L104.962 53.865C103.458 49.0662 100.29 38.5355 99.5071 34.4127C99.0393 31.9498 97.6746 30.4728 96.0715 29.7119Z" fill="white"/>
<path fill-rule="evenodd" clip-rule="evenodd" d="M76.1533 39.2202C73.5783 37.0632 69.8076 37.4658 67.4157 40.042C65.0493 42.5907 65.1781 45.8641 66.2751 47.6495L66.3605 47.7885L66.4815 47.9009C67.8813 49.2017 69.9924 51.2467 71.7715 53.1481C72.6629 54.1009 73.4538 54.9994 74.0274 55.7406C74.315 56.1122 74.5326 56.4246 74.6784 56.6713C74.8134 56.8997 74.8421 56.9983 74.8443 56.9977C74.8446 56.9977 74.8445 56.9964 74.8442 56.9939C74.9294 57.6314 75.2144 58.4625 75.5743 59.3183C75.9478 60.2065 76.4427 61.2147 77.0051 62.2301C78.115 64.2339 79.5561 66.3885 80.9354 67.709C82.1863 68.9065 83.843 69.4531 85.2914 69.6842C86.7479 69.9166 88.1341 69.8533 89.0065 69.7141C89.6859 69.6057 90.1449 68.9905 90.0317 68.34C89.9184 67.6896 89.2758 67.2501 88.5964 67.3585C87.9723 67.4581 86.8641 67.5142 85.7015 67.3287C84.5309 67.1419 83.4438 66.7333 82.6992 66.0204C81.5841 64.9529 80.2814 63.0478 79.2088 61.1113C78.68 60.1567 78.2238 59.2246 77.8881 58.4263C77.5407 57.6003 77.3591 57.0032 77.3178 56.6869C77.2611 56.2523 77.0455 55.8271 76.8492 55.4952C76.6339 55.1308 76.351 54.7317 76.0317 54.319C75.3914 53.4916 74.5422 52.5304 73.6294 51.5548C71.8571 49.6606 69.7799 47.6434 68.3544 46.3136C67.845 45.3348 67.7251 43.3032 69.28 41.6285C70.8681 39.918 73.0646 39.8324 74.4817 40.9934L82.3163 48.494L82.4836 48.5783C83.4662 49.0734 85.0958 49.489 86.6878 48.8816C88.3784 48.2366 89.5951 46.6142 90.0341 43.8824C90.1389 43.2307 89.6719 42.621 88.9911 42.5207C88.3103 42.4205 87.6735 42.8675 87.5688 43.5193C87.2096 45.7546 86.3477 46.4407 85.7643 46.6633C85.1394 46.9017 84.3821 46.7894 83.8002 46.5375L76.1845 39.2464L76.1533 39.2202Z" fill="white"/>
<path fill-rule="evenodd" clip-rule="evenodd" d="M42.4048 47.7605C42.4048 47.1011 42.9632 46.5665 43.652 46.5665H67.8477C68.5365 46.5665 69.0949 47.1011 69.0949 47.7605C69.0949 48.42 68.5365 48.9546 67.8477 48.9546H43.652C42.9632 48.9546 42.4048 48.42 42.4048 47.7605Z" fill="white"/>
</svg>
