<svg xmlns="http://www.w3.org/2000/svg" width="94" height="94" fill="none" xmlns:v="https://vecta.io/nano"><path d="M86.419 15.161h-6.712l.492-4.548h2.429c1.407 0 2.757-.559 3.752-1.554s1.554-2.345 1.554-3.752-.559-2.757-1.554-3.752S84.036 0 82.629 0H11.371C9.964 0 8.614.559 7.619 1.554S6.065 3.899 6.065 5.306s.559 2.757 1.554 3.752 2.345 1.554 3.752 1.554h2.465l.614 4.548h-6.87A7.59 7.59 0 0 0 0 22.742v10.613a19.73 19.73 0 0 0 19.71 19.71h2.738a29.95 29.95 0 0 0 18.488 12.895v8.331a7.59 7.59 0 0 0-7.581 7.581h-4.548c-1.206.001-2.362.481-3.215 1.334s-1.332 2.009-1.334 3.215v3.032c.001 1.206.481 2.362 1.334 3.215s2.009 1.332 3.215 1.334h36.387c1.206-.001 2.362-.481 3.215-1.334s1.332-2.009 1.334-3.215v-3.032c-.001-1.206-.481-2.362-1.334-3.215s-2.009-1.332-3.215-1.334h-4.548a7.59 7.59 0 0 0-7.581-7.581v-8.116c3.951-.758 7.708-2.311 11.041-4.564s6.174-5.161 8.35-8.545h1.835A19.73 19.73 0 0 0 94 33.355V22.742a7.59 7.59 0 0 0-7.581-7.581zm-9.414 24.99l1.718-15.893h6.179v9.097a10.64 10.64 0 0 1-8.538 10.405c.287-1.188.501-2.393.641-3.608zM9.097 5.306c.001-.603.24-1.181.667-1.607s1.004-.666 1.607-.667h71.258c.603 0 1.182.24 1.608.666s.666 1.005.666 1.608-.24 1.182-.666 1.608-1.005.666-1.608.666H11.371c-.603-.001-1.181-.24-1.607-.667s-.666-1.004-.667-1.607zm8.837 35.632c.138.994.326 1.98.564 2.955-2.586-.3-4.972-1.539-6.705-3.481s-2.692-4.454-2.696-7.057v-9.097h6.583l2.254 16.68zm1.776 9.094c-4.422-.005-8.661-1.764-11.787-4.89s-4.885-7.366-4.89-11.787V22.742c.001-1.206.481-2.362 1.334-3.215s2.009-1.332 3.215-1.334h7.28l.409 3.032H7.581c-.402 0-.788.16-1.072.444s-.444.67-.444 1.072v10.613c.005 3.57 1.408 6.995 3.908 9.543s5.898 4.016 9.467 4.089c.376 1.039.81 2.056 1.301 3.046h-1.03zm45.484 34.871a1.52 1.52 0 0 1 1.516 1.516v3.032a1.52 1.52 0 0 1-1.516 1.516H28.807a1.52 1.52 0 0 1-1.516-1.516v-3.032a1.52 1.52 0 0 1 1.516-1.516h36.387zm-7.581-3.032H36.387c.001-1.206.481-2.362 1.334-3.215s2.009-1.332 3.215-1.334h12.129c1.206.001 2.362.481 3.215 1.334s1.332 2.009 1.334 3.215zm-7.581-7.581h-6.065v-7.807c1.146.143 2.3.219 3.455.226a30.44 30.44 0 0 0 2.61-.121v7.702zm-2.61-10.613c-6.462-.019-12.7-2.372-17.566-6.624s-8.032-10.119-8.917-16.52l-4.044-29.92h60.254l-3.158 29.213a26.68 26.68 0 0 1-26.569 23.852zm43.545-30.323c-.005 4.422-1.764 8.661-4.89 11.787s-7.366 4.885-11.787 4.89h-.153a29.58 29.58 0 0 0 1.29-3.091c3.406-.29 6.58-1.846 8.895-4.361s3.604-5.806 3.612-9.225V22.742c0-.402-.16-.788-.444-1.072s-.67-.444-1.072-.444h-7.367l.328-3.032h7.04c1.206.001 2.362.481 3.215 1.334s1.332 2.009 1.334 3.215v10.613zm-31.431-4.934l-6.775-.98-3.02-6.044A3.07 3.07 0 0 0 47 19.71a3.07 3.07 0 0 0-2.741 1.687l-3.042 6.055-6.754.969c-.564.078-1.096.313-1.533.678s-.763.846-.939 1.388-.197 1.122-.059 1.675.429 1.056.839 1.451l4.889 4.7-1.154 6.643c-.098.557-.038 1.13.174 1.654s.568.978 1.026 1.31c.461.34 1.009.543 1.58.587a3.06 3.06 0 0 0 1.651-.34l6.042-3.136c.006-.003.013-.005.02-.005s.014.002.02.005l6.041 3.137c.508.266 1.08.384 1.651.34s1.119-.247 1.581-.587c.458-.332.813-.786 1.025-1.31s.273-1.097.174-1.654l-1.152-6.639 4.888-4.704c.41-.395.701-.898.839-1.451s.117-1.133-.059-1.675-.502-1.023-.939-1.388-.968-.6-1.533-.678v.001zm-5.297 7.711a3.03 3.03 0 0 0-.887 2.701l1.107 6.643-6.043-3.136a3.08 3.08 0 0 0-2.832 0l-6.09 3.135 1.154-6.643a3.03 3.03 0 0 0-.886-2.7l-4.869-4.71 6.757-.969c.489-.07.953-.257 1.354-.546s.726-.669.948-1.11l3.077-6.044 3.02 6.044c.222.441.548.822.949 1.111s.866.475 1.356.545l6.774.975-4.887 4.704z" fill="#fff"/></svg>