<svg width="87" height="87" viewBox="0 0 87 87" fill="none" xmlns="http://www.w3.org/2000/svg">
<path d="M59.1553 58.0128L59.0087 57.8768L59.1554 58.0128C59.6894 57.4369 60.1921 56.8315 60.6607 56.1992C63.2914 52.6504 64.8472 48.2566 64.8472 43.5C64.8472 31.7102 55.2896 22.1527 43.4999 22.1527C31.7101 22.1527 22.1525 31.7102 22.1525 43.5C22.1525 55.2897 31.7101 64.8473 43.4999 64.8473C49.6855 64.8473 55.2567 62.2162 59.1553 58.0128ZM62.3325 43.5C62.3325 47.2651 61.2277 50.7719 59.3248 53.7141C56.82 50.0954 53.1057 47.3774 48.7659 46.1446C50.8284 44.5622 52.1588 42.0717 52.1588 39.2705C52.1588 34.4883 48.282 30.6116 43.4999 30.6116C38.7177 30.6116 34.8409 34.4883 34.8409 39.2705C34.8409 42.0719 36.1713 44.5623 38.2339 46.1448C33.8941 47.3774 30.1799 50.0956 27.6751 53.7141C25.7721 50.7719 24.6673 47.2654 24.6673 43.5C24.6673 33.099 33.0989 24.6674 43.4999 24.6674C53.9009 24.6674 62.3325 33.099 62.3325 43.5ZM43.5001 47.9295C49.5048 47.9295 54.7702 51.0952 57.7184 55.8496C54.2652 59.8217 49.176 62.3326 43.4999 62.3326C37.8239 62.3326 32.7345 59.8219 29.2815 55.8498C32.2296 51.0952 37.4952 47.9295 43.5001 47.9295ZM49.6441 39.2705C49.6441 42.664 46.8933 45.4147 43.4999 45.4147C40.1064 45.4147 37.3557 42.664 37.3557 39.2705C37.3557 35.8772 40.1064 33.1263 43.4999 33.1263C46.8933 33.1263 49.6441 35.8772 49.6441 39.2705Z" fill="white" stroke="white" stroke-width="0.4"/>
<path d="M61.0511 24.9861C60.6523 25.3849 60.6523 26.0316 61.0511 26.4304C61.4499 26.8292 62.0966 26.8292 62.4954 26.4304L66.2615 22.6643C66.6603 22.2655 66.6603 21.6188 66.2615 21.22C65.8627 20.8212 65.216 20.8212 64.8172 21.22L61.0511 24.9861Z" fill="white" stroke="white" stroke-width="0.4" stroke-linecap="round"/>
<path d="M20.8094 64.8169C20.4106 65.2158 20.4106 65.8624 20.8094 66.2612C21.2082 66.66 21.8549 66.66 22.2537 66.2612L26.0198 62.4951C26.4186 62.0963 26.4186 61.4496 26.0198 61.0508C25.621 60.652 24.9743 60.652 24.5755 61.0508L20.8094 64.8169Z" fill="white" stroke="white" stroke-width="0.4" stroke-linecap="round"/>
<path d="M64.8169 66.6014C65.2158 67.0002 65.8624 67.0002 66.2612 66.6014C66.66 66.2025 66.66 65.5559 66.2612 65.1571L62.4951 61.391C62.0963 60.9922 61.4496 60.9922 61.0508 61.391C60.652 61.7898 60.652 62.4364 61.0508 62.8352L64.8169 66.6014Z" fill="white" stroke="white" stroke-width="0.4" stroke-linecap="round"/>
<path d="M24.5757 26.7704C24.9745 27.1692 25.6212 27.1692 26.02 26.7704C26.4188 26.3716 26.4188 25.725 26.02 25.3261L22.2539 21.56C21.8551 21.1612 21.2084 21.1612 20.8096 21.56C20.4108 21.9589 20.4108 22.6055 20.8096 23.0043L24.5757 26.7704Z" fill="white" stroke="white" stroke-width="0.4" stroke-linecap="round"/>
<path d="M44.7268 69.3695C44.7268 68.8055 44.2696 68.3482 43.7055 68.3482C43.1415 68.3482 42.6843 68.8054 42.6843 69.3695L42.6842 74.5729C42.6842 75.1369 43.1415 75.5941 43.7055 75.5941C44.2695 75.5941 44.7267 75.1369 44.7267 74.5729L44.7268 69.3695Z" fill="white" stroke="white" stroke-width="0.4" stroke-linecap="round"/>
<path d="M44.7268 12.9082C44.7268 12.3442 44.2696 11.8869 43.7055 11.8869C43.1415 11.8869 42.6843 12.3441 42.6843 12.9082L42.6842 18.1116C42.6842 18.6756 43.1415 19.1328 43.7055 19.1328C44.2695 19.1328 44.7267 18.6756 44.7267 18.1116L44.7268 12.9082Z" fill="white" stroke="white" stroke-width="0.4" stroke-linecap="round"/>
<path d="M74.3673 44.454C74.9314 44.454 75.3886 43.9967 75.3886 43.4327C75.3886 42.8687 74.9314 42.4114 74.3673 42.4114L69.164 42.4114C68.5999 42.4114 68.1427 42.8686 68.1427 43.4327C68.1427 43.9967 68.5999 44.4539 69.1639 44.4539L74.3673 44.454Z" fill="white" stroke="white" stroke-width="0.4" stroke-linecap="round"/>
<path d="M17.7008 44.454C18.2649 44.454 18.7221 43.9967 18.7221 43.4327C18.7221 42.8687 18.2649 42.4114 17.7008 42.4114L12.4975 42.4114C11.9334 42.4114 11.4762 42.8686 11.4762 43.4327C11.4762 43.9967 11.9334 44.4539 12.4974 44.4539L17.7008 44.454Z" fill="white" stroke="white" stroke-width="0.4" stroke-linecap="round"/>
<path d="M73.4812 17.6305C73.4812 19.9013 71.6404 21.7421 69.3696 21.7421C67.0989 21.7421 65.258 19.9013 65.258 17.6305C65.258 15.3597 67.0989 13.5189 69.3696 13.5189C71.6404 13.5189 73.4812 15.3597 73.4812 17.6305ZM69.3696 23.7846C72.7685 23.7846 75.5237 21.0293 75.5237 17.6305C75.5237 14.2317 72.7685 11.4764 69.3696 11.4764C65.9708 11.4764 63.2155 14.2317 63.2155 17.6305C63.2155 21.0293 65.9708 23.7846 69.3696 23.7846Z" fill="white" stroke="white" stroke-width="0.4"/>
<path d="M84.1575 43.5C84.1575 45.7708 82.3167 47.6116 80.0459 47.6116C77.7751 47.6116 75.9343 45.7708 75.9343 43.5C75.9343 41.2292 77.7751 39.3884 80.0459 39.3884C82.3167 39.3884 84.1575 41.2292 84.1575 43.5ZM80.0459 49.6541C83.4447 49.6541 86.2 46.8988 86.2 43.5C86.2 40.1012 83.4447 37.3459 80.0459 37.3459C76.6471 37.3459 73.8918 40.1012 73.8918 43.5C73.8918 46.8988 76.6471 49.6541 80.0459 49.6541Z" fill="white" stroke="white" stroke-width="0.4"/>
<path d="M73.4812 69.3695C73.4812 71.6403 71.6404 73.4811 69.3696 73.4811C67.0989 73.4811 65.258 71.6403 65.258 69.3695C65.258 67.0987 67.0989 65.2579 69.3696 65.2579C71.6404 65.2579 73.4812 67.0987 73.4812 69.3695ZM69.3696 75.5236C72.7685 75.5236 75.5237 72.7683 75.5237 69.3695C75.5237 65.9707 72.7685 63.2154 69.3696 63.2154C65.9708 63.2154 63.2155 65.9707 63.2155 69.3695C63.2155 72.7683 65.9708 75.5236 69.3696 75.5236Z" fill="white" stroke="white" stroke-width="0.4"/>
<path d="M47.6116 80.0459C47.6116 82.3167 45.7708 84.1575 43.5 84.1575C41.2292 84.1575 39.3884 82.3167 39.3884 80.0459C39.3884 77.7751 41.2292 75.9343 43.5 75.9343C45.7708 75.9343 47.6116 77.7751 47.6116 80.0459ZM43.5 86.2C46.8988 86.2 49.6541 83.4447 49.6541 80.0459C49.6541 76.6471 46.8988 73.8918 43.5 73.8918C40.1012 73.8918 37.3459 76.6471 37.3459 80.0459C37.3459 83.4447 40.1012 86.2 43.5 86.2Z" fill="white" stroke="white" stroke-width="0.4"/>
<path d="M21.742 69.3695C21.742 71.6403 19.9011 73.4811 17.6304 73.4811C15.3596 73.4811 13.5188 71.6403 13.5188 69.3695C13.5188 67.0987 15.3596 65.2579 17.6304 65.2579C19.9011 65.2579 21.742 67.0987 21.742 69.3695ZM17.6304 75.5236C21.0292 75.5236 23.7845 72.7683 23.7845 69.3695C23.7845 65.9707 21.0292 63.2154 17.6304 63.2154C14.2316 63.2154 11.4763 65.9707 11.4763 69.3695C11.4763 72.7683 14.2316 75.5236 17.6304 75.5236Z" fill="white" stroke="white" stroke-width="0.4"/>
<path d="M11.0657 43.5C11.0657 45.7708 9.22488 47.6116 6.95411 47.6116C4.68334 47.6116 2.84251 45.7708 2.84251 43.5C2.84251 41.2292 4.68334 39.3884 6.95411 39.3884C9.22488 39.3884 11.0657 41.2292 11.0657 43.5ZM6.95411 49.6541C10.3529 49.6541 13.1082 46.8988 13.1082 43.5C13.1082 40.1012 10.3529 37.3459 6.95411 37.3459C3.55529 37.3459 0.8 40.1012 0.8 43.5C0.8 46.8988 3.55529 49.6541 6.95411 49.6541Z" fill="white" stroke="white" stroke-width="0.4"/>
<path d="M21.742 17.6305C21.742 19.9013 19.9011 21.7421 17.6304 21.7421C15.3596 21.7421 13.5188 19.9013 13.5188 17.6305C13.5188 15.3597 15.3596 13.5189 17.6304 13.5189C19.9011 13.5189 21.742 15.3597 21.742 17.6305ZM17.6304 23.7846C21.0292 23.7846 23.7845 21.0293 23.7845 17.6305C23.7845 14.2317 21.0292 11.4764 17.6304 11.4764C14.2316 11.4764 11.4763 14.2317 11.4763 17.6305C11.4763 21.0293 14.2316 23.7846 17.6304 23.7846Z" fill="white" stroke="white" stroke-width="0.4"/>
<path d="M47.6116 6.95411C47.6116 9.22488 45.7708 11.0657 43.5 11.0657C41.2292 11.0657 39.3884 9.22488 39.3884 6.95411C39.3884 4.68334 41.2292 2.84251 43.5 2.84251C45.7708 2.84251 47.6116 4.68334 47.6116 6.95411ZM43.5 13.1082C46.8988 13.1082 49.6541 10.3529 49.6541 6.95411C49.6541 3.55529 46.8988 0.8 43.5 0.8C40.1012 0.8 37.3459 3.55529 37.3459 6.95411C37.3459 10.3529 40.1012 13.1082 43.5 13.1082Z" fill="white" stroke="white" stroke-width="0.4"/>
</svg>
