<svg width="112" height="112" viewBox="0 0 112 112" fill="none" xmlns="http://www.w3.org/2000/svg">
<path d="M56.0001 0C49.5292 0 44.2791 5.24926 44.2791 11.719C44.2791 18.1888 49.5292 23.438 56.0001 23.438C62.4709 23.438 67.721 18.1888 67.721 11.719C67.721 5.24926 62.4709 0 56.0001 0ZM56.0001 2.60426C61.073 2.60426 65.1164 6.64695 65.1164 11.719C65.1164 16.7911 61.073 20.8338 56.0001 20.8338C50.9271 20.8338 46.8838 16.7911 46.8838 11.719C46.8838 6.64695 50.9271 2.60426 56.0001 2.60426ZM22.1396 7.81269C17.1117 7.81269 13.0233 11.9004 13.0233 16.9275C13.0233 21.9545 17.1117 26.0423 22.1396 26.0423C27.1675 26.0423 31.2559 21.9545 31.2559 16.9275C31.2559 11.9004 27.1675 7.81269 22.1396 7.81269ZM89.8606 7.81269C84.8327 7.81269 80.7443 11.9004 80.7443 16.9275C80.7443 21.9545 84.8327 26.0423 89.8606 26.0423C94.8885 26.0423 98.9769 21.9545 98.9769 16.9275C98.9769 11.9004 94.8885 7.81269 89.8606 7.81269ZM22.1396 10.4169C25.7695 10.4169 28.6512 13.2981 28.6512 16.9275C28.6512 20.5568 25.7695 23.438 22.1396 23.438C18.5096 23.438 15.6279 20.5568 15.6279 16.9275C15.6279 13.2981 18.5096 10.4169 22.1396 10.4169ZM89.8606 10.4169C93.4905 10.4169 96.3722 13.2981 96.3722 16.9275C96.3722 20.5568 93.4905 23.438 89.8606 23.438C86.2306 23.438 83.3489 20.5568 83.3489 16.9275C83.3489 13.2981 86.2306 10.4169 89.8606 10.4169ZM49.4884 31.2507C39.9089 31.2506 33.8605 38.085 33.8605 45.5739V67.7098C33.9275 72.5168 35.6283 75.365 37.8896 76.7433C40.1508 78.1214 42.6786 78.0971 44.2384 78.1268C44.252 78.127 44.2656 78.127 44.2791 78.1268V110.679C44.2694 111.367 44.8933 112 45.5815 112C46.2696 112 46.8935 111.367 46.8838 110.679V45.5739C46.9132 44.821 46.1663 44.1364 45.4187 44.2311C44.7789 44.3112 44.254 44.9297 44.2791 45.5739V75.5225C42.6955 75.4912 40.7392 75.3974 39.2733 74.5052C37.8017 73.6083 36.5342 71.9179 36.4652 67.7098C36.4652 60.3312 36.4652 52.9526 36.4652 45.5739C36.4652 39.5609 40.9923 34.1361 49.0815 33.9363C50.9112 35.3857 52.9906 37.5853 55.0233 39.9179C55.5104 40.4699 56.4897 40.4699 56.9768 39.9179C59.0096 37.5853 61.0889 35.3857 62.9187 33.9363C71.0078 34.1361 75.535 39.5609 75.535 45.5739C75.535 52.9506 75.535 60.3398 75.535 67.7098C75.466 71.9181 74.1984 73.6083 72.7268 74.5052C71.261 75.3985 69.3047 75.4916 67.721 75.5225V45.5739C67.7505 44.821 67.0036 44.1364 66.2559 44.2311C65.6162 44.3112 65.0913 44.9297 65.1164 45.5739V110.679C65.1066 111.367 65.7306 112 66.4187 112C67.1068 112 67.7307 111.367 67.721 110.679V78.1268C67.7346 78.127 67.7481 78.127 67.7617 78.1268C69.3215 78.0968 71.8493 78.1267 74.1106 76.7433C76.3718 75.365 78.0726 72.5171 78.1396 67.7098V45.5739C78.1396 38.085 72.0912 31.2506 62.5117 31.2507C62.2369 31.2481 61.9618 31.3346 61.7384 31.4949C59.8301 32.9248 57.8929 35.101 56.0001 37.2323C54.1072 35.101 52.17 32.9248 50.2617 31.4949C50.0384 31.3346 49.7633 31.2478 49.4884 31.2507ZM28.407 33.8142C28.1975 33.8603 27.9998 33.9591 27.8372 34.099C25.8821 35.6266 23.8258 38.0177 22.1396 39.7958C20.4534 38.0177 18.3971 35.6266 16.4419 34.099C16.2077 33.9305 15.9162 33.8432 15.6279 33.8549C6.0484 33.8549 0 40.6893 0 48.1782V70.3141C0.0669865 75.1213 1.76779 77.9692 4.02907 79.3474C6.29036 80.7256 8.81812 80.7013 10.3779 80.731C10.3915 80.7311 10.405 80.7311 10.4186 80.731V101.563C10.4088 102.251 11.0328 102.884 11.7209 102.884C12.409 102.884 13.033 102.251 13.0233 101.563V48.1782C13.0527 47.4252 12.3058 46.7407 11.5582 46.8354C10.9184 46.9155 10.3935 47.534 10.4186 48.1782V78.1268C8.8349 78.0955 6.87866 78.0017 5.4128 77.1095C3.94124 76.2126 2.67366 74.5223 2.60465 70.3141C2.60465 62.9355 2.60465 55.5568 2.60465 48.1782C2.60465 42.1761 7.11876 36.759 15.1803 36.5405C17.0089 38.0721 19.4183 40.7779 21.2035 42.5628C21.6877 43.0632 22.5914 43.0632 23.0756 42.5628C24.9694 40.6694 27.6108 37.6231 29.4652 36.1743C29.9466 35.8433 30.1532 35.1644 29.9378 34.6213C29.7224 34.0782 29.1066 33.7255 28.5291 33.8142C28.4884 33.8129 28.4477 33.8129 28.407 33.8142ZM83.1861 33.8142C82.1278 33.898 81.6693 35.5599 82.535 36.1743C84.3893 37.6231 87.0308 40.6694 88.9245 42.5628C89.4087 43.0632 90.3125 43.0632 90.7966 42.5628C92.5818 40.7779 94.9912 38.0721 96.8199 36.5405C104.881 36.759 109.395 42.1761 109.395 48.1782C109.395 55.5568 109.395 62.9355 109.395 70.3141C109.326 74.5223 108.059 76.2126 106.587 77.1095C105.121 78.0027 103.165 78.0959 101.582 78.1268V48.1782C101.611 47.4252 100.864 46.7407 100.116 46.8354C99.4767 46.9155 98.9518 47.534 98.9769 48.1782V102.865C98.9671 103.554 99.5911 104.186 100.279 104.186C100.967 104.186 101.591 103.554 101.582 102.865V80.731C101.595 80.7311 101.609 80.7311 101.622 80.731C103.182 80.7011 105.71 80.731 107.971 79.3474C110.232 77.9692 111.933 75.1213 112 70.3141V48.1782C112 40.6893 105.952 33.8549 96.3722 33.8549C96.0839 33.8432 95.7925 33.9306 95.5583 34.099C93.6031 35.6266 91.5468 38.0177 89.8606 39.7958C88.1744 38.0177 86.1181 35.6266 84.1629 34.099C83.9235 33.9075 83.6147 33.8046 83.3082 33.8142C83.2676 33.8129 83.2268 33.8129 83.1861 33.8142ZM55.8373 72.8775C55.1975 72.957 54.6727 73.5763 54.6977 74.2204V110.151C54.688 110.838 55.312 111.471 56.0001 111.471C56.6882 111.471 57.3121 110.838 57.3024 110.151V74.2204C57.3318 73.4674 56.5849 72.7829 55.8373 72.8775ZM21.9768 75.4818C21.337 75.5625 20.8122 76.1804 20.8372 76.8247V101.563C20.8275 102.251 21.4515 102.884 22.1396 102.884C22.8277 102.884 23.4516 102.251 23.4419 101.563V76.8247C23.4713 76.0717 22.7244 75.3871 21.9768 75.4818ZM89.6978 75.4818C89.058 75.5625 88.5332 76.1804 88.5582 76.8247V102.865C88.5485 103.554 89.1725 104.186 89.8606 104.186C90.5487 104.186 91.1726 103.554 91.1629 102.865V76.8247C91.1923 76.0717 90.4454 75.3871 89.6978 75.4818ZM32.3954 83.2945C31.7556 83.3752 31.2308 83.9931 31.2559 84.6374V101.563C31.2461 102.251 31.8701 102.884 32.5582 102.884C33.2463 102.884 33.8702 102.251 33.8605 101.563V84.6374C33.8899 83.8843 33.143 83.1998 32.3954 83.2945ZM79.2792 83.2945C78.6394 83.3752 78.1145 83.9931 78.1396 84.6374V102.865C78.1299 103.554 78.7539 104.186 79.442 104.186C80.1301 104.186 80.754 103.554 80.7443 102.865V84.6374C80.7737 83.8843 80.0268 83.1998 79.2792 83.2945Z" fill="white"/>
</svg>
