<svg xmlns="http://www.w3.org/2000/svg" width="180" height="101" fill="#fff" xmlns:v="https://vecta.io/nano"><path d="M23.854 66.589c-.216 0-.43-.05-.626-.15L.756 55.006c-.68-.347-.951-1.178-.606-1.858L26.762.818c.343-.673 1.166-.945 1.842-.614l22.323 10.994a1.38 1.38 0 0 1 .625 1.859l-26.464 52.77a1.38 1.38 0 0 1-.803.694 1.39 1.39 0 0 1-.432.069zM3.241 53.169l20.001 10.176 25.217-50.282-19.85-9.776L3.241 53.169zm151.614 13.469c-.186 0-.373-.038-.547-.113-.338-.146-.604-.421-.739-.764l-21.57-54.914c-.135-.341-.127-.725.022-1.061a1.37 1.37 0 0 1 .768-.733l23.23-8.958a1.38 1.38 0 0 1 1.78.776l21.758 54.489c.283.709-.062 1.511-.77 1.796l-23.417 9.383c-.165.066-.34.099-.515.099zM135.08 11.131l20.553 52.324 20.845-8.352-20.74-51.938-20.658 7.967zM18.379 49.903c-.359 0-.719-.138-.996-.414-.248-.248-.386-.609-.386-.968s.138-.718.386-.968c.526-.525 1.437-.525 1.964 0 .248.25.414.609.414.968a1.41 1.41 0 0 1-.414.968c-.25.277-.609.414-.968.414zm144.304 0a1.4 1.4 0 0 1-.995-.414 1.38 1.38 0 0 1-.387-.968c0-.359.138-.718.387-.968.552-.525 1.465-.525 1.963 0 .248.25.414.609.414.968s-.166.719-.414.968a1.3 1.3 0 0 1-.968.414z"/><path d="M56.379 25.033a1.38 1.38 0 0 1-.61-.142l-9.373-4.61c-.684-.337-.966-1.165-.63-1.85a1.39 1.39 0 0 1 1.85-.63l8.718 4.289 13.936-7.87c2.826-1.595 5.981-2.229 8.875-1.796 2.181.329 3.992 1.153 5.381 2.448.557.521.588 1.396.067 1.954a1.38 1.38 0 0 1-1.954.067c-.972-.908-2.288-1.493-3.907-1.735-2.287-.346-4.812.175-7.103 1.47l-14.571 8.227a1.37 1.37 0 0 1-.679.178zM39.083 68.068a1.37 1.37 0 0 1-.729-.209l-12.169-7.581a1.382 1.382 0 1 1 1.46-2.346l12.169 7.581a1.38 1.38 0 0 1-.732 2.555z"/><path d="M45.306 77.827a6.68 6.68 0 0 1-3.924-1.269l-1.941-1.402a6.59 6.59 0 0 1-2.676-4.348c-.275-1.753.154-3.508 1.206-4.939 2.166-2.958 6.354-3.611 9.336-1.457l1.941 1.401c1.45 1.047 2.4 2.593 2.676 4.351a6.56 6.56 0 0 1-1.207 4.938c-1.306 1.78-3.346 2.726-5.412 2.726zm-1.928-11.922c-1.215 0-2.412.555-3.18 1.599a3.82 3.82 0 0 0-.702 2.875c.161 1.024.715 1.926 1.562 2.537L43 74.318c1.757 1.267 4.217.883 5.491-.853.613-.834.862-1.856.703-2.875a3.86 3.86 0 0 0-1.564-2.539l-1.941-1.401a3.94 3.94 0 0 0-2.312-.746z"/><path d="M53.768 85.953c-1.327 0-2.647-.355-3.817-1.103-1.594-1.018-2.699-2.624-3.109-4.524-.445-2.055-.019-4.286 1.17-6.118l1.566-2.412c2.375-3.653 7.108-4.841 10.544-2.645 1.594 1.016 2.699 2.624 3.111 4.523.445 2.057.019 4.288-1.17 6.119l-1.567 2.412c-1.567 2.412-4.158 3.748-6.728 3.748zm-1.872-12.65l-1.565 2.412c-.791 1.217-1.078 2.686-.788 4.027.255 1.173.928 2.161 1.896 2.779 2.169 1.385 5.188.566 6.738-1.822l1.567-2.412c.791-1.217 1.078-2.686.787-4.027-.254-1.174-.927-2.161-1.896-2.779-2.165-1.382-5.186-.567-6.738 1.822z"/><path d="M62.65 93.637a6.95 6.95 0 0 1-4.197-1.386c-1.482-1.115-2.439-2.758-2.697-4.629-.275-2.004.269-4.018 1.532-5.67l5.254-6.872c2.514-3.288 7.131-4.035 10.282-1.665a6.92 6.92 0 0 1 2.696 4.628c.275 2.004-.269 4.018-1.53 5.671l-5.257 6.872c-1.521 1.992-3.813 3.051-6.084 3.051zm2.086-16.878l-5.254 6.872c-.811 1.062-1.163 2.346-.988 3.614.155 1.135.73 2.128 1.618 2.795 1.951 1.467 4.83.956 6.425-1.134l5.257-6.872c.811-1.062 1.162-2.347.988-3.615-.157-1.135-.731-2.127-1.618-2.794-1.945-1.462-4.826-.956-6.428 1.134z"/><path d="M73.612 98.734c-1.543 0-3.151-.509-4.535-1.548-1.609-1.211-2.677-2.972-2.934-4.836-.219-1.599.174-3.153 1.108-4.375l4.172-5.454c2.09-2.733 6.309-3.066 9.404-.742 1.609 1.21 2.678 2.972 2.934 4.835.219 1.599-.174 3.153-1.108 4.375l-4.172 5.454c-1.155 1.512-2.962 2.289-4.869 2.29zm2.669-15.75c-1.066 0-2.046.409-2.664 1.216l-4.17 5.454c-.62.811-.649 1.71-.566 2.32.157 1.139.834 2.233 1.857 3.003 1.883 1.413 4.375 1.323 5.548-.212l4.17-5.454c.62-.811.649-1.71.566-2.32-.157-1.139-.834-2.233-1.857-3.003-.893-.672-1.923-1.004-2.884-1.004zm-3.761.377h.027-.027z"/><path d="M95.226 100.283c-7.443 0-15.196-7.621-15.55-7.974a1.38 1.38 0 0 1-.005-1.954c.54-.538 1.414-.544 1.954-.005.085.082 8.482 8.305 14.992 7.039 2.517-.491 4.43-2.347 5.849-5.672.3-.703 1.118-1.027 1.814-.729.702.3 1.029 1.112.729 1.814-1.783 4.176-4.429 6.632-7.867 7.301-.633.123-1.274.18-1.916.18z"/><path d="M107.882 93.879c-9.066 0-16.569-12.776-16.883-13.322a1.38 1.38 0 0 1 .503-1.888 1.39 1.39 0 0 1 1.888.502c.069.12 7.017 11.944 14.491 11.944h.028c3.294-.013 6.344-2.444 9.067-7.224a1.38 1.38 0 0 1 2.402 1.368c-3.249 5.703-7.106 8.604-11.462 8.62h-.034z"/><path d="M122.345 86.332c-10.217 0-20.429-16.319-20.868-17.026-.4-.649-.201-1.501.448-1.903s1.501-.2 1.903.448c2.799 4.521 11.561 16.165 18.936 15.704 3.204-.201 5.964-2.785 8.202-7.682a1.38 1.38 0 0 1 2.513 1.15c-2.694 5.895-6.242 9.022-10.543 9.291a8.64 8.64 0 0 1-.591.019z"/><path d="M135.921 77.761a8.27 8.27 0 0 1-.318-.007c-9.741-.371-22.877-18.733-23.432-19.516a1.38 1.38 0 1 1 2.254-1.599c3.56 5.016 14.322 18.09 21.283 18.354 1.499.047 2.715-.509 3.729-1.727 2-2.408 2.918-4.659 2.727-6.691-.203-2.167-1.668-3.798-2.861-4.781-3.135-2.588-6.104-5.316-8.826-8.107-5.371-5.509-11.598-10.026-18.505-13.423l-16.808-8.265a5.68 5.68 0 0 0-4.833-.09c-1.386.618-2.443 1.729-2.974 3.126-1.153 3.022-3.297 6.937-6.973 8.427-2.313.937-4.867.769-7.587-.502-.081-.039-6.779-3.393-2.812-13.641 2.03-5.24 6.03-9.821 11.264-12.896a29.47 29.47 0 0 1 24.333-2.528l15.943 5.361 13.953-3.756a1.38 1.38 0 0 1 1.694.976c.198.737-.239 1.495-.976 1.694l-14.357 3.864a1.4 1.4 0 0 1-.799-.024L104.7 16.513c-7.341-2.471-15.38-1.637-22.052 2.29-4.699 2.761-8.281 6.849-10.087 11.512-3.01 7.774 1.25 10.058 1.432 10.151 1.999.931 3.759 1.081 5.352.431 2.899-1.173 4.645-4.795 5.428-6.849.796-2.088 2.37-3.744 4.432-4.664a8.43 8.43 0 0 1 7.178.134l16.808 8.265a69.97 69.97 0 0 1 19.264 13.974c2.653 2.721 5.549 5.381 8.607 7.904 2.289 1.891 3.622 4.192 3.853 6.656.262 2.79-.866 5.722-3.352 8.714-1.505 1.813-3.402 2.73-5.643 2.73z"/><path d="M141.84 63.797c-.593 0-1.143-.386-1.323-.984-.22-.73.194-1.501.925-1.722l10.642-3.204c.727-.223 1.5.194 1.722.926s-.195 1.501-.926 1.722l-10.641 3.204a1.42 1.42 0 0 1-.399.058z"/></svg>