<svg xmlns="http://www.w3.org/2000/svg" width="144" height="142" fill="#fff" xmlns:v="https://vecta.io/nano"><path d="M128.611 78.286a2.55 2.55 0 0 0 2.596.078c.816-.45 1.322-1.308 1.322-2.24V32.898a8.63 8.63 0 0 0-8.619-8.62H85.024V8.619C85.024 3.867 81.157 0 76.405 0H19.256c-4.752 0-8.619 3.867-8.619 8.619v43.227a2.56 2.56 0 0 0 1.32 2.238 2.55 2.55 0 0 0 1.236.318c.474 0 .947-.132 1.363-.394l10.253-6.428h33.336v15.659c0 4.752 3.867 8.619 8.619 8.619l51.693.029 10.154 6.4zM58.145 32.898v11.453H24.809c-.641 0-1.27.181-1.818.525l-9.123 5.749V8.62c0-2.972 2.418-5.388 5.388-5.388h57.15c2.972 0 5.389 2.418 5.389 5.388v15.66H66.764a8.63 8.63 0 0 0-8.619 8.619zm23.65-5.389v11.453c0 2.973-2.418 5.389-5.389 5.389H61.374V32.898c0-2.973 2.418-5.389 5.39-5.389h15.031zM66.764 68.628a5.4 5.4 0 0 1-5.39-5.388V47.581h15.031c4.752 0 8.619-3.867 8.619-8.62V27.507h38.889c2.972 0 5.388 2.418 5.388 5.39v42.006l-9.121-5.747c-.546-.344-1.176-.527-1.82-.527H66.764zM20.223 94.451A13.02 13.02 0 0 0 7.205 107.47a13.02 13.02 0 0 0 13.019 13.019c5.865 0 10.822-3.88 12.449-9.214.367-1.204.568-2.482.568-3.805 0-4.675-2.472-8.762-6.172-11.057-1.99-1.236-4.33-1.961-6.845-1.961zm9.788 13.019c0 5.397-4.39 9.789-9.788 9.789a9.8 9.8 0 0 1-9.789-9.789 9.8 9.8 0 0 1 9.789-9.788 9.8 9.8 0 0 1 9.788 9.788zm-4.74 21.925c6.587 0 11.947 5.358 11.947 11.945h1.615 1.615c0-8.367-6.808-15.174-15.176-15.174H15.176C6.808 126.166 0 132.975 0 141.34h1.615H3.23c0-6.587 5.359-11.945 11.947-11.945h10.095zm46.313-8.906c5.865 0 10.822-3.88 12.451-9.214.367-1.204.568-2.482.568-3.805 0-5.924-3.961-10.916-9.376-12.492-1.156-.337-2.377-.526-3.643-.526a13 13 0 0 0-3.643.526c-5.415 1.576-9.376 6.568-9.376 12.492a13 13 0 0 0 .568 3.805c1.629 5.332 6.586 9.214 12.451 9.214zm0-22.809c5.397 0 9.79 4.391 9.79 9.788s-4.391 9.79-9.79 9.79-9.789-4.391-9.789-9.79a9.8 9.8 0 0 1 9.789-9.788zm-20.223 43.66h1.615 1.615c0-6.587 5.359-11.945 11.947-11.945h10.095c6.587 0 11.947 5.358 11.947 11.945h1.615 1.615c0-8.367-6.808-15.174-15.176-15.174H66.537c-8.367-.001-15.176 6.807-15.176 15.174zm71.584-20.851c7.19 0 13.019-5.829 13.019-13.019a13.02 13.02 0 0 0-13.019-13.019c-2.515 0-4.855.725-6.847 1.961-3.7 2.295-6.172 6.383-6.172 11.057a13 13 0 0 0 .568 3.805c1.629 5.332 6.586 9.214 12.451 9.214zm0-22.809c5.397 0 9.789 4.391 9.789 9.788s-4.39 9.79-9.789 9.79-9.79-4.391-9.79-9.79 4.392-9.788 9.79-9.788zm5.047 28.485h-10.095c-8.367 0-15.176 6.808-15.176 15.174h1.615 1.615a11.96 11.96 0 0 1 11.946-11.945h10.095c6.588 0 11.947 5.357 11.947 11.945h1.614 1.615c0-8.366-6.808-15.174-15.176-15.174z"/></svg>