<svg xmlns="http://www.w3.org/2000/svg" width="139" height="144" fill="#fff" xmlns:v="https://vecta.io/nano"><path d="M69.04 30.495c-21.207 0-38.545 17.337-38.545 38.545 0 13.313 6.966 25.696 18.266 32.662v21.981c0 11.146 9.133 20.124 20.124 20.124s20.124-9.133 20.124-20.124v-21.826c11.3-6.966 18.266-19.35 18.266-32.662.31-21.362-17.028-38.699-38.235-38.699zm15.48 90.402H53.56v-9.133h30.96v9.133zm-15.48 18.421c-7.895 0-14.551-6.037-15.48-13.777h30.96c-.929 7.74-7.585 13.777-15.48 13.777zm16.718-40.867c-.774.464-1.238 1.238-1.238 2.013v6.501H53.56v-6.501c0-.774-.464-1.548-1.238-2.013-10.526-6.037-17.183-17.337-17.183-29.412 0-18.731 15.17-33.901 33.901-33.901s33.901 15.17 33.901 33.901c0 12.074-6.657 23.374-17.183 29.412zm-.155-41.795c-1.083-.774-2.477-.464-3.251.464l-18.42 25.697-8.204-11.61c-.774-1.084-2.167-1.238-3.251-.464s-1.238 2.167-.464 3.251L62.23 88.235c.464.619 1.084.929 1.858.929s1.393-.31 1.858-.929l20.278-28.328c.619-1.084.464-2.477-.619-3.251zM69.04 21.672c1.238 0 2.322-1.084 2.322-2.322V2.322C71.362 1.084 70.278 0 69.04 0s-2.322 1.084-2.322 2.322V19.35c0 1.238 1.084 2.322 2.322 2.322zM32.198 35.604c.464.464 1.084.619 1.703.619s1.238-.155 1.703-.619a2.24 2.24 0 0 0 0-3.251L23.529 20.279a2.24 2.24 0 0 0-3.251 0 2.24 2.24 0 0 0 0 3.251l11.919 12.074zm73.684 66.872a2.299 2.299 0 1 0-3.251 3.251l12.074 12.074c.465.465 1.084.619 1.703.619s1.238-.154 1.703-.619c.928-.929.928-2.322 0-3.251l-12.229-12.074zm-1.703-66.253c.619 0 1.238-.155 1.703-.619l12.074-12.074a2.24 2.24 0 0 0 0-3.251 2.24 2.24 0 0 0-3.251 0l-12.074 12.074a2.24 2.24 0 0 0 0 3.251c.31.464.929.619 1.548.619zm-71.981 66.253L20.124 114.55a2.24 2.24 0 0 0 0 3.251c.464.464 1.084.619 1.703.619s1.238-.155 1.703-.619l12.074-12.074a2.24 2.24 0 0 0 0-3.251c-.929-.774-2.477-.774-3.406 0zm103.56-35.758H118.73c-1.238 0-2.322 1.084-2.322 2.322s1.084 2.322 2.322 2.322h17.028c1.238 0 2.322-1.084 2.322-2.322s-1.084-2.322-2.322-2.322zM21.672 69.04c0-1.238-1.084-2.322-2.322-2.322H2.322C1.084 66.718 0 67.801 0 69.04s1.084 2.322 2.322 2.322H19.35c1.238 0 2.322-1.084 2.322-2.322z"/></svg>